<?xml version="1.0" encoding="UTF-8"?><svg id="Layer_1" xmlns="http://www.w3.org/2000/svg" viewBox="0 0 16 16"><defs><style>.cls-1{fill:none;}.cls-2{fill:#fff;}</style></defs><rect class="cls-1" width="16" height="16"/><g><path class="cls-2" d="M9.71,.31c-1.33,0-2.4,1.07-2.4,2.39V7.1c.21-.08,.44-.13,.68-.13s.47,.05,.68,.13V2.71c0-.57,.46-1.03,1.04-1.03s1.04,.46,1.04,1.03v1h1.37v-1c0-1.32-1.08-2.39-2.4-2.39Z"/><path class="cls-2" d="M9.11,8.81c0,.61-.5,1.11-1.12,1.11s-1.12-.5-1.12-1.11,.5-1.11,1.12-1.11,1.12,.5,1.12,1.11Z"/><path class="cls-2" d="M2.83,6.13c-1.33,0-2.4,1.07-2.4,2.39v4.25c.21-.08,.44-.13,.68-.13s.47,.05,.68,.13v-4.25c0-.57,.46-1.03,1.04-1.03s1.04,.46,1.04,1.03v1h1.37v-1c0-1.32-1.08-2.39-2.4-2.39Z"/><path class="cls-2" d="M2.22,14.48c0,.61-.5,1.1-1.11,1.1S0,15.09,0,14.48s.5-1.1,1.11-1.1,1.11,.49,1.11,1.1Z"/><path class="cls-2" d="M14.87,4.99c-.1,0-.19,0-.29-.02-.14-.02-.27-.06-.4-.11v2.51c0,.56-.46,1.02-1.04,1.02s-1.04-.46-1.04-1.02v-2.84h-1.37v2.84c0,1.31,1.08,2.37,2.4,2.37s2.4-1.06,2.4-2.37v-2.51c-.22,.09-.45,.13-.68,.13Z"/><path class="cls-2" d="M15.98,2.97c.12,.76-.53,1.4-1.29,1.28-.47-.07-.86-.46-.93-.93-.12-.76,.53-1.4,1.29-1.28,.47,.07,.86,.46,.93,.93Z"/><path class="cls-2" d="M7.99,10.65c-.24,0-.47-.05-.68-.13v2.63c0,.57-.46,1.03-1.04,1.03s-1.04-.46-1.04-1.03v-2.87h-1.37v2.87c0,1.32,1.08,2.39,2.4,2.39s2.4-1.07,2.4-2.39v-2.63c-.21,.08-.44,.13-.68,.13Z"/></g></svg>